<?xml version="1.0" encoding="UTF-8"?>
<svg id="Layer_1" data-name="Layer 1" xmlns="http://www.w3.org/2000/svg" viewBox="0 0 707.05 1063.8">
  <path d="M485.76,723.36c51.08-17.82,102.81-25.27,102.81,17.82v39.58l-175.87,108.22v-502.84h123.18v103.98l111.86-191.61h-235.04v-82.37c43-20.3,70.96-62.07,67.57-108.66C476.06,46.73,420.13,0,353.53,0s-122.53,46.73-126.73,107.49c-3.39,46.59,24.57,88.36,67.57,108.66v82.37H59.33l111.86,191.61v-103.98h123.18v502.84l-175.87-108.22v-39.58c0-43.08,51.73-35.64,102.81-17.82L0,523.28v301.58l353.53,238.93,353.53-238.93v-301.58l-221.3,200.08ZM412.04,129.98c-6.63,21.76-28.29,38.26-54.64,39.72-1.29.15-2.59.15-3.88.15s-2.59,0-3.88-.15c-26.35-1.46-48.01-17.96-54.64-39.72-1.94-5.99-2.75-12.27-2.26-18.69,2.1-29.21,28.93-51.7,60.78-51.55,31.84-.15,58.68,22.35,60.78,51.55.48,6.43-.32,12.71-2.26,18.69Z"/>
</svg>